<svg width="512" height="512" viewBox="0 0 512 512" fill="none" xmlns="http://www.w3.org/2000/svg">
<g clip-path="url(#clip0_1008_101)">
<rect width="512" height="512" fill="#32B768"/>
<path opacity="0.5" d="M160.793 124.326C138.789 124.311 117.451 132.125 100.372 146.452C83.2924 160.778 71.5139 180.744 67.0189 202.987C62.5238 225.231 65.5866 248.394 75.6917 268.579C85.7969 288.764 102.327 304.738 122.501 313.812V381.35H390.547V313.812C411.824 304.224 429.003 286.98 438.887 265.289C448.771 243.598 450.688 218.938 444.28 195.896C437.872 172.855 423.575 153.003 404.051 140.034C384.527 127.065 361.105 121.862 338.144 125.394C332.354 107.784 321.368 92.489 306.729 81.657C292.09 70.825 274.533 65 256.524 65C238.515 65 220.958 70.825 206.319 81.657C191.68 92.489 180.694 107.784 174.904 125.394C170.232 124.682 165.516 124.325 160.793 124.326Z" fill="#374151"/>
<path d="M390.527 371.35H122.539C122.731 401.59 124.109 434.384 133.721 445.25C144.94 457.935 162.995 457.935 199.085 457.935H313.962C350.072 457.935 368.126 457.935 379.346 445.25C388.957 434.384 390.317 401.59 390.527 371.35Z" fill="#374151"/>
<path d="M218.153 311.767C216.952 310.876 215.588 310.23 214.138 309.867C212.687 309.503 211.179 309.429 209.7 309.648C208.221 309.867 206.8 310.375 205.517 311.144C204.234 311.912 203.116 312.926 202.225 314.127C201.334 315.328 200.688 316.692 200.325 318.143C199.961 319.593 199.887 321.101 200.106 322.58C200.325 324.059 200.833 325.48 201.602 326.763C202.37 328.046 203.384 329.164 204.585 330.055C219.69 341.349 238.04 347.46 256.901 347.479C275.761 347.46 294.111 341.349 309.216 330.055C310.442 329.175 311.482 328.06 312.273 326.774C313.064 325.489 313.592 324.059 313.825 322.568C314.059 321.076 313.993 319.554 313.633 318.088C313.272 316.622 312.623 315.243 311.725 314.03C310.826 312.817 309.695 311.795 308.398 311.024C307.1 310.252 305.662 309.746 304.168 309.536C302.673 309.325 301.151 309.414 299.691 309.797C298.231 310.18 296.862 310.85 295.663 311.767C284.478 320.153 270.88 324.694 256.901 324.713C242.926 324.691 229.334 320.15 218.153 311.767Z" fill="#374151"/>
</g>
<defs>
<clipPath id="clip0_1008_101">
<rect width="512" height="512" fill="white"/>
</clipPath>
</defs>
</svg>
