<svg width="32" height="33" viewBox="0 0 32 33" fill="none" xmlns="http://www.w3.org/2000/svg">
<path d="M25.0001 13.4466V12.5066C25.0001 7.34796 20.9681 3.16663 16.0001 3.16663C11.0321 3.16663 7.00008 7.34796 7.00008 12.5066V13.4466C7.00169 14.5687 6.68148 15.6677 6.07742 16.6133L4.60008 18.9133C3.25208 21.0133 4.28142 23.868 6.62675 24.532C12.7549 26.2692 19.2453 26.2692 25.3734 24.532C27.7188 23.868 28.7481 21.0133 27.4001 18.9146L25.9228 16.6146C25.3182 15.6692 24.9975 14.5702 24.9988 13.448L25.0001 13.4466Z" stroke="#374151" stroke-width="2"/>
<path d="M10 25.8333C10.8733 28.1639 13.2293 29.8333 16 29.8333C18.7707 29.8333 21.1267 28.1639 22 25.8333" stroke="#374151" stroke-width="2" stroke-linecap="round"/>
</svg>
