<svg width="32" height="32" viewBox="0 0 32 32" fill="none" xmlns="http://www.w3.org/2000/svg">
<path fill-rule="evenodd" clip-rule="evenodd" d="M17.4746 29.3333H14.5253C9.9293 29.3333 7.63197 29.3333 6.0653 27.984C4.49864 26.6346 4.1733 24.3773 3.52397 19.86L3.15197 17.2773C2.6453 13.7613 2.39197 12.0026 3.1133 10.5C3.8333 8.99729 5.36797 8.08263 8.43597 6.25596L10.2826 5.15596C13.0666 3.49596 14.4613 2.66663 16 2.66663C17.5386 2.66663 18.932 3.49596 21.7173 5.15596L23.564 6.25596C26.6306 8.08263 28.1653 8.99729 28.8866 10.5C29.6066 12.0026 29.3533 13.7613 28.8466 17.2773L28.476 19.86C27.8266 24.3773 27.5013 26.6346 25.9346 27.984C24.368 29.3333 22.0706 29.3333 17.4746 29.3333ZM11.1973 20.7373C11.3552 20.5243 11.5913 20.3827 11.8536 20.3437C12.1159 20.3047 12.3829 20.3714 12.596 20.5293C13.5666 21.2493 14.7386 21.6666 16 21.6666C17.2613 21.6666 18.4333 21.2493 19.404 20.5293C19.5095 20.451 19.6293 20.3943 19.7568 20.3624C19.8842 20.3304 20.0166 20.3239 20.1466 20.3431C20.2765 20.3624 20.4014 20.4071 20.5141 20.4746C20.6268 20.5421 20.725 20.6311 20.8033 20.7366C20.8816 20.8421 20.9383 20.962 20.9702 21.0894C21.0022 21.2168 21.0087 21.3493 20.9894 21.4792C20.9702 21.6092 20.9255 21.734 20.858 21.8467C20.7905 21.9594 20.7015 22.0577 20.596 22.136C19.2689 23.1281 17.6569 23.665 16 23.6666C14.3431 23.665 12.731 23.1281 11.404 22.136C11.1911 21.9778 11.0498 21.7417 11.0111 21.4794C10.9723 21.2171 11.0393 20.9502 11.1973 20.7373Z" fill="#374151"/>
</svg>
