<svg width="32" height="32" viewBox="0 0 32 32" fill="none" xmlns="http://www.w3.org/2000/svg">
    <path fill-rule="evenodd" clip-rule="evenodd"
          d="M18.6773 25.3374L18.6853 22.6667C18.6853 22.3122 18.8262 21.9722 19.0768 21.7215C19.3275 21.4709 19.6675 21.33 20.022 21.33C20.3765 21.33 20.7165 21.4709 20.9672 21.7215C21.2179 21.9722 21.3587 22.3122 21.3587 22.6667V25.3027C21.3587 25.944 21.3587 26.2654 21.564 26.4627C21.7707 26.6587 22.084 26.6454 22.7147 26.6187C25.1987 26.5134 26.7253 26.1787 27.8 25.104C28.88 24.0294 29.2147 22.5027 29.32 20.0147C29.34 19.5214 29.3507 19.2734 29.2587 19.1094C29.1653 18.9454 28.7987 18.74 28.0627 18.328C27.6481 18.0969 27.3028 17.7593 27.0624 17.35C26.822 16.9407 26.6952 16.4747 26.6952 16C26.6952 15.5254 26.822 15.0593 27.0624 14.6501C27.3028 14.2408 27.6481 13.9032 28.0627 13.672C28.7987 13.2614 29.1667 13.0547 29.2587 12.8907C29.3507 12.7267 29.34 12.48 29.3187 11.9854C29.2147 9.49737 28.8787 7.97204 27.8 6.89604C26.6307 5.72804 24.9267 5.43337 22.0373 5.35871C21.9489 5.35639 21.8608 5.37182 21.7784 5.40409C21.696 5.43635 21.6209 5.4848 21.5575 5.54656C21.4941 5.60833 21.4438 5.68216 21.4094 5.76371C21.375 5.84526 21.3573 5.93287 21.3573 6.02137V9.33337C21.3573 9.68788 21.2165 10.0279 20.9658 10.2785C20.7152 10.5292 20.3752 10.67 20.0207 10.67C19.6662 10.67 19.3262 10.5292 19.0755 10.2785C18.8248 10.0279 18.684 9.68788 18.684 9.33337L18.6747 5.99871C18.6743 5.82213 18.6039 5.6529 18.4789 5.52816C18.354 5.40343 18.1846 5.33337 18.008 5.33337H13.3253C8.28535 5.33337 5.76535 5.33337 4.19868 6.89604C3.11868 7.97071 2.78401 9.49737 2.67868 11.9854C2.65868 12.4787 2.64801 12.7267 2.74001 12.8907C2.83335 13.0547 3.20001 13.2614 3.93601 13.672C4.35059 13.9032 4.69593 14.2408 4.93634 14.6501C5.17674 15.0593 5.3035 15.5254 5.3035 16C5.3035 16.4747 5.17674 16.9407 4.93634 17.35C4.69593 17.7593 4.35059 18.0969 3.93601 18.328C3.20001 18.74 2.83201 18.9454 2.74001 19.1094C2.64801 19.2734 2.65868 19.52 2.68001 20.0134C2.78401 22.5027 3.12001 24.0294 4.19868 25.104C5.76535 26.6667 8.28535 26.6667 13.3267 26.6667H17.34C17.9693 26.6667 18.2827 26.6667 18.4787 26.472C18.6747 26.2774 18.676 25.9654 18.6773 25.3374ZM21.3573 17.3334V14.6667C21.3573 14.3122 21.2165 13.9722 20.9658 13.7215C20.7152 13.4709 20.3752 13.33 20.0207 13.33C19.6662 13.33 19.3262 13.4709 19.0755 13.7215C18.8248 13.9722 18.684 14.3122 18.684 14.6667V17.3334C18.684 17.6881 18.8249 18.0282 19.0757 18.279C19.3265 18.5298 19.6667 18.6707 20.0213 18.6707C20.376 18.6707 20.7162 18.5298 20.967 18.279C21.2178 18.0282 21.3573 17.6881 21.3573 17.3334Z"
          fill="#374151"/>
</svg>
