<svg width="32" height="32" viewBox="0 0 32 32" fill="none" xmlns="http://www.w3.org/2000/svg">
<path d="M12.596 20.5294C12.4905 20.4511 12.3707 20.3944 12.2432 20.3624C12.1158 20.3305 11.9834 20.324 11.8534 20.3432C11.7235 20.3625 11.5986 20.4071 11.4859 20.4747C11.3733 20.5422 11.275 20.6312 11.1967 20.7367C11.1184 20.8422 11.0617 20.9621 11.0298 21.0895C10.9978 21.2169 10.9913 21.3494 11.0106 21.4793C11.0298 21.6093 11.0745 21.7341 11.142 21.8468C11.2095 21.9595 11.2985 22.0578 11.404 22.136C12.7311 23.1282 14.3431 23.6651 16 23.6667C17.657 23.6651 19.269 23.1282 20.596 22.136C20.7038 22.0587 20.7951 21.9608 20.8646 21.8478C20.9341 21.7349 20.9804 21.6093 21.001 21.4783C21.0215 21.3472 21.0157 21.2135 20.984 21.0847C20.9523 20.9559 20.8954 20.8347 20.8164 20.7282C20.7375 20.6217 20.6381 20.5319 20.5241 20.4641C20.4101 20.3963 20.2838 20.3519 20.1525 20.3334C20.0212 20.3149 19.8875 20.3227 19.7593 20.3563C19.631 20.39 19.5107 20.4488 19.4054 20.5294C18.4228 21.2661 17.2281 21.6651 16 21.6667C14.7724 21.6648 13.5783 21.2658 12.596 20.5294Z" fill="#374151"/>
<path fill-rule="evenodd" clip-rule="evenodd" d="M16.0001 1.66663C15.0334 1.66663 14.1508 1.93329 13.1868 2.38263C12.2508 2.81863 11.1708 3.46263 9.81609 4.26929L7.87476 5.42529C6.38276 6.31463 5.19476 7.02263 4.29343 7.69996C3.36409 8.39996 2.66676 9.11996 2.21343 10.068C1.75743 11.016 1.63476 12.0093 1.67343 13.168C1.71209 14.2893 1.90809 15.6533 2.15343 17.3626L2.54409 20.072C2.86009 22.272 3.11209 24.0173 3.48676 25.376C3.87343 26.776 4.42276 27.8893 5.41343 28.7413C6.40276 29.5946 7.58676 29.9746 9.03476 30.1573C10.4428 30.3333 12.2174 30.3333 14.4561 30.3333H17.5441C19.7841 30.3333 21.5574 30.3333 22.9654 30.1573C24.4134 29.9746 25.5974 29.5946 26.5868 28.7426C27.5774 27.8893 28.1268 26.7773 28.5134 25.376C28.8881 24.016 29.1401 22.272 29.4561 20.072L29.8454 17.3626C30.0921 15.6533 30.2881 14.2893 30.3254 13.168C30.3654 12.008 30.2428 11.016 29.7881 10.068C29.3334 9.11996 28.6361 8.39996 27.7068 7.69996C26.8068 7.02263 25.6174 6.31463 24.1254 5.42529L22.1841 4.26929C20.8294 3.46263 19.7494 2.81863 18.8148 2.38263C17.8494 1.93196 16.9668 1.66663 16.0001 1.66663ZM10.7948 6.01463C12.2041 5.17463 13.1988 4.58396 14.0321 4.19463C14.8441 3.81596 15.4281 3.66663 16.0001 3.66663C16.5734 3.66663 17.1561 3.81596 17.9681 4.19463C18.8014 4.58396 19.7948 5.17463 21.2054 6.01463L23.0521 7.11463C24.6054 8.03996 25.7001 8.69329 26.5054 9.29863C27.2881 9.88929 27.7188 10.3773 27.9854 10.932C28.2508 11.4866 28.3614 12.124 28.3281 13.1C28.2934 14.1 28.1148 15.3546 27.8588 17.1346L27.4854 19.7173C27.1574 22.0026 26.9228 23.6213 26.5854 24.844C26.2561 26.0386 25.8588 26.7306 25.2828 27.2266C24.7054 27.724 23.9574 28.0173 22.7161 28.1733C21.4481 28.332 19.7988 28.3333 17.4761 28.3333H14.5254C12.2014 28.3333 10.5521 28.332 9.28409 28.1733C8.04409 28.0173 7.29476 27.724 6.71743 27.2266C6.14143 26.7306 5.74409 26.0386 5.41476 24.844C5.07743 23.6213 4.84143 22.0026 4.51343 19.7173L4.14143 17.1346C3.88543 15.3546 3.70676 14.0986 3.67209 13.1C3.63876 12.124 3.74943 11.4866 4.01609 10.932C4.28276 10.3773 4.71076 9.88929 5.49609 9.29863C6.30009 8.69329 7.39476 8.03996 8.94809 7.11463L10.7948 6.01463Z" fill="#374151"/>
</svg>
