<svg width="36" height="36" viewBox="0 0 36 36" fill="none" xmlns="http://www.w3.org/2000/svg">
<path opacity="0.5" d="M33 18C33 26.2845 26.2845 33 18 33C9.7155 33 3 26.2845 3 18C3 9.7155 9.7155 3 18 3C26.2845 3 33 9.7155 33 18Z" fill="#374151"/>
<path d="M25.2104 28.5165C23.0891 29.9752 20.5744 30.7541 17.9999 30.75C15.4255 30.7541 12.9107 29.9752 10.7894 28.5165C9.88344 27.894 9.49644 26.709 10.0244 25.7445C11.1149 23.745 13.3649 22.5 17.9999 22.5C22.6349 22.5 24.8849 23.745 25.9769 25.7445C26.5019 26.709 26.1164 27.894 25.2104 28.5165ZM17.9999 18C19.1934 18 20.338 17.5259 21.1819 16.682C22.0258 15.8381 22.4999 14.6935 22.4999 13.5C22.4999 12.3065 22.0258 11.1619 21.1819 10.318C20.338 9.47411 19.1934 9 17.9999 9C16.8065 9 15.6619 9.47411 14.818 10.318C13.974 11.1619 13.4999 12.3065 13.4999 13.5C13.4999 14.6935 13.974 15.8381 14.818 16.682C15.6619 17.5259 16.8065 18 17.9999 18Z" fill="#374151"/>
</svg>
