<svg width="32" height="32" viewBox="0 0 32 32" fill="none" xmlns="http://www.w3.org/2000/svg">
<path opacity="0.5" d="M12.0027 9.33329C12.0187 6.43329 12.148 4.86263 13.172 3.83863C14.344 2.66663 16.2294 2.66663 20 2.66663H21.3334C25.1054 2.66663 26.9907 2.66663 28.1627 3.83863C29.3334 5.00929 29.3334 6.89596 29.3334 10.6666V21.3333C29.3334 25.104 29.3334 26.9906 28.1627 28.1613C26.9894 29.3333 25.1054 29.3333 21.3334 29.3333H20C16.2294 29.3333 14.344 29.3333 13.172 28.1613C12.148 27.1373 12.0187 25.5666 12.0027 22.6666" stroke="#374151" stroke-width="2" stroke-linecap="round"/>
<path d="M20.0001 16H2.66675M2.66675 16L7.33341 12M2.66675 16L7.33341 20" stroke="#374151" stroke-width="2" stroke-linecap="round" stroke-linejoin="round"/>
</svg>
