<svg class="icon" width="32" height="32" viewBox="0 0 32 32" fill="none" xmlns="http://www.w3.org/2000/svg">
    <path class="icon--fill fill-primary"
          d="M23.8102 32H5.91261C4.39451 32 3.02289 31.5794 1.79775 30.7383C0.599251 29.8973 0 28.9032 0 27.7563C0 26.7877 0.0532667 25.9084 0.1598 25.1183C0.266334 24.3282 0.466084 23.4616 0.759051 22.5185H1.6779C1.97087 23.5635 2.50354 24.3154 3.27591 24.7742C3.91511 25.1565 4.79401 25.3477 5.91261 25.3477H21.3733C21.3733 20.7853 20.7075 17.1151 19.3758 14.3369C17.7245 10.8706 14.968 8.56392 11.1061 7.41697L11.7054 0C16.3129 2.16647 19.5755 5.62007 21.4931 10.3608C23.0379 14.184 23.8102 19.1796 23.8102 25.3477V32Z"
          fill="#374151"/>
    <path class="icon--fill fill-primary" fill-rule="evenodd" clip-rule="evenodd"
          d="M8 14.2867L32 14.2867V16.2867L8 16.2867V14.2867Z" fill="#374151"/>
    <path class="icon--fill fill-primary" fill-rule="evenodd" clip-rule="evenodd"
          d="M8 19.1804L32 19.1804V21.1804L8 21.1804V19.1804Z" fill="#374151"/>
</svg>
