<svg width="32" height="32" viewBox="0 0 32 32" fill="none" xmlns="http://www.w3.org/2000/svg">
<path fill-rule="evenodd" clip-rule="evenodd" d="M11 12C11 10.6739 11.5268 9.40215 12.4645 8.46447C13.4021 7.52678 14.6739 7 16 7C17.3261 7 18.5979 7.52678 19.5355 8.46447C20.4732 9.40215 21 10.6739 21 12C21 13.3261 20.4732 14.5979 19.5355 15.5355C18.5979 16.4732 17.3261 17 16 17C14.6739 17 13.4021 16.4732 12.4645 15.5355C11.5268 14.5979 11 13.3261 11 12ZM16 9C15.2044 9 14.4413 9.31607 13.8787 9.87868C13.3161 10.4413 13 11.2044 13 12C13 12.7956 13.3161 13.5587 13.8787 14.1213C14.4413 14.6839 15.2044 15 16 15C16.7956 15 17.5587 14.6839 18.1213 14.1213C18.6839 13.5587 19 12.7956 19 12C19 11.2044 18.6839 10.4413 18.1213 9.87868C17.5587 9.31607 16.7956 9 16 9Z" fill="#374151"/>
<path fill-rule="evenodd" clip-rule="evenodd" d="M1.66675 16C1.66675 8.08396 8.08408 1.66663 16.0001 1.66663C23.9161 1.66663 30.3334 8.08396 30.3334 16C30.3334 23.916 23.9161 30.3333 16.0001 30.3333C8.08408 30.3333 1.66675 23.916 1.66675 16ZM16.0001 3.66663C13.5637 3.66674 11.1819 4.38847 9.15521 5.74077C7.12854 7.09306 5.5478 9.01533 4.61243 11.265C3.67706 13.5147 3.42897 15.9911 3.89946 18.3816C4.36996 20.7722 5.53795 22.9698 7.25608 24.6973C7.49608 23.4 7.96941 22.1773 8.91741 21.1933C10.3374 19.7213 12.6054 19 16.0001 19C19.3947 19 21.6627 19.7213 23.0814 21.1933C24.0307 22.1773 24.5027 23.4013 24.7441 24.6986C26.4627 22.9712 27.6311 20.7735 28.1018 18.3827C28.5726 15.9919 28.3246 13.5153 27.3892 11.2653C26.4537 9.01531 24.8728 7.09284 22.8458 5.74048C20.8189 4.38812 18.4368 3.66648 16.0001 3.66663ZM22.9254 26.2066C22.7894 24.5906 22.4387 23.4066 21.6427 22.5813C20.7761 21.684 19.1721 21 16.0001 21C12.8281 21 11.2241 21.684 10.3574 22.5813C9.56141 23.408 9.21075 24.5906 9.07475 26.208C11.1169 27.5969 13.5304 28.3376 16.0001 28.3333C18.4699 28.3371 20.8834 27.596 22.9254 26.2066Z" fill="#374151"/>
</svg>
