<svg width="540" height="434" viewBox="0 0 540 434" fill="none" xmlns="http://www.w3.org/2000/svg">
<path d="M43.6387 370.944C43.6387 370.944 -6.32133 338.156 0.671022 265.324C8.41256 184.677 40.1866 175.863 64.2339 164.023C91.5276 150.582 114.884 148.261 146.188 81.8338C187.511 -5.86446 261.871 0.0849145 290.016 0.0849145C385.588 0.0849145 384.443 94.849 430.583 142.018C474.021 186.411 568.947 282.644 461.432 367.889C405.449 412.267 133.159 426.383 43.6387 370.944Z" fill="#B3FFD1"/>
<path d="M443.29 195.166C487.465 195.166 523.276 159.355 523.276 115.18C523.276 71.0052 487.465 35.1942 443.29 35.1942C399.115 35.1942 363.304 71.0052 363.304 115.18C363.304 159.355 399.115 195.166 443.29 195.166Z" fill="#32B768"/>
<path d="M431.729 147.672L401.512 123.478C398.354 120.937 397.355 116.412 399.47 112.96C402.026 108.773 407.565 107.907 411.266 110.874L438.736 132.865L474.095 89.4564C476.871 86.0483 481.895 85.5342 485.303 88.3105C488.711 91.0869 489.225 96.1108 486.449 99.5189L448.681 145.865C444.48 151.021 436.915 151.829 431.729 147.672Z" fill="white"/>
<path d="M365.243 412.266H116.456C110.58 412.266 105.836 407.507 105.836 401.645V203.142H375.864V401.645C375.864 407.507 371.119 412.266 365.243 412.266Z" fill="#32B768"/>
<path d="M324.626 148.202H267.438H214.276H157.074L105.836 203.142H214.276H267.438H375.864L324.626 148.202Z" fill="#0E7F3D"/>
<path d="M324.626 148.203H157.073V120.983C157.073 116.561 160.658 112.992 165.065 112.992H316.634C321.056 112.992 324.626 116.576 324.626 120.983V148.203Z" fill="#32B768"/>
<path d="M152.358 306.941C159.173 306.941 164.698 299.325 164.698 289.93C164.698 280.536 159.173 272.92 152.358 272.92C145.543 272.92 140.019 280.536 140.019 289.93C140.019 299.325 145.543 306.941 152.358 306.941Z" fill="#0E7F3D"/>
<path d="M152.358 367.539C150.448 367.539 148.906 365.997 148.906 364.087V298.336H155.796V364.102C155.796 365.997 154.253 367.539 152.358 367.539Z" fill="#0E7F3D"/>
<path d="M191.33 367.539C189.421 367.539 187.878 365.997 187.878 364.087V298.336H194.768V364.102C194.768 365.997 193.225 367.539 191.33 367.539Z" fill="#0E7F3D"/>
<path d="M203.669 276.168V294.207C203.669 300.656 198.425 305.886 191.991 305.886H190.669C184.22 305.886 178.99 300.656 178.99 294.207V276.168C178.99 275.992 179.005 275.83 179.049 275.669C179.284 274.699 180.136 273.965 181.179 273.965C182.222 273.965 183.089 274.699 183.324 275.669C183.368 275.83 183.383 275.992 183.383 276.168V289.83C183.383 291.299 184.587 292.503 186.056 292.503H186.497C187.966 292.503 189.171 291.299 189.171 289.83V276.168C189.171 275.992 189.185 275.83 189.229 275.669C189.464 274.699 190.331 273.965 191.374 273.965C192.417 273.965 193.269 274.699 193.504 275.669C193.548 275.83 193.563 275.992 193.563 276.168V289.918C193.563 291.401 194.767 292.606 196.251 292.606H196.633C198.117 292.606 199.307 291.401 199.307 289.918V276.168C199.307 275.992 199.321 275.83 199.365 275.669C199.6 274.699 200.467 273.965 201.51 273.965C202.553 273.965 203.42 274.699 203.655 275.669C203.655 275.816 203.669 275.992 203.669 276.168Z" fill="#0E7F3D"/>
<path d="M439.926 422.783L410.297 433.873L359.132 430.069L347.116 426.969L344.016 426.176L356.958 419.595L426.735 422.283L439.676 422.768L439.926 422.783Z" fill="#E06738"/>
<path d="M517.401 407.829L473.992 405.332L440.94 412.266L426.72 422.299L426.427 422.519L410.282 433.889L359.485 423.665L347.116 426.999L321.438 433.904L288.107 425.912L230.347 430.349L230.597 402.027L212.411 377.201H240.835C249.444 372.559 261.989 371.281 261.989 371.281L279.381 380.065L438.002 380.932L466.53 371.927L517.401 407.829Z" fill="#FDF0B9"/>
<path d="M442.761 345.587H271.169C269.642 354.959 271.169 381.621 271.169 381.621C271.169 396.605 309.583 408.739 356.973 408.739C404.362 408.739 442.776 396.59 442.776 381.621C443.951 360.38 442.761 345.587 442.761 345.587Z" fill="#EDB82C"/>
<path d="M440.631 341.225C448.77 340.799 455.424 349.378 452.677 354.592C449.93 359.807 439.794 363.73 436.445 364.714C428.836 366.961 434.344 378.684 419.963 375.217C412.53 373.425 410.356 378.449 406.228 382.488C402.115 386.528 391.127 383.708 380.829 379.257C370.532 374.806 361.6 387.336 351.655 386.132C341.71 384.927 332.779 380.065 326.257 382.488C319.734 384.912 315.959 382.488 308.056 374.806C300.153 367.123 292.264 377.641 285.052 374.806C277.839 371.971 280.586 365.11 272.697 361.467C264.794 357.824 256.906 356.487 256.906 351.963C256.906 341.739 272.565 339.183 272.565 339.183L440.631 341.225Z" fill="#E06738"/>
<path d="M442.761 329.546C442.761 360.982 404.348 367.828 356.958 367.828C309.569 367.828 271.155 360.982 271.155 329.546C271.155 298.11 309.569 272.623 356.958 272.623C404.348 272.623 442.761 298.11 442.761 329.546Z" fill="#EDB82C"/>
<path d="M314.255 290.517C315.724 290.517 316.914 289.919 316.914 289.18C316.914 288.442 315.724 287.844 314.255 287.844C312.787 287.844 311.596 288.442 311.596 289.18C311.596 289.919 312.787 290.517 314.255 290.517Z" fill="white"/>
<path d="M331.119 300.815C332.587 300.815 333.778 300.216 333.778 299.478C333.778 298.74 332.587 298.141 331.119 298.141C329.65 298.141 328.46 298.74 328.46 299.478C328.46 300.216 329.65 300.815 331.119 300.815Z" fill="white"/>
<path d="M342.195 290.517C343.664 290.517 344.854 289.919 344.854 289.18C344.854 288.442 343.664 287.844 342.195 287.844C340.727 287.844 339.536 288.442 339.536 289.18C339.536 289.919 340.727 290.517 342.195 290.517Z" fill="white"/>
<path d="M360.851 280.954C362.32 280.954 363.51 280.356 363.51 279.617C363.51 278.879 362.32 278.281 360.851 278.281C359.383 278.281 358.192 278.879 358.192 279.617C358.192 280.356 359.383 280.954 360.851 280.954Z" fill="white"/>
<path d="M375.365 294.469C376.833 294.469 378.024 293.87 378.024 293.132C378.024 292.394 376.833 291.795 375.365 291.795C373.896 291.795 372.706 292.394 372.706 293.132C372.706 293.87 373.896 294.469 375.365 294.469Z" fill="white"/>
<path d="M404.039 294.469C405.508 294.469 406.698 293.87 406.698 293.132C406.698 292.394 405.508 291.795 404.039 291.795C402.571 291.795 401.381 292.394 401.381 293.132C401.381 293.87 402.571 294.469 404.039 294.469Z" fill="white"/>
<path d="M301.886 313.051C303.355 313.051 304.545 312.452 304.545 311.714C304.545 310.976 303.355 310.377 301.886 310.377C300.418 310.377 299.227 310.976 299.227 311.714C299.227 312.452 300.418 313.051 301.886 313.051Z" fill="white"/>
<path d="M333.41 325.582C334.879 325.582 336.069 324.983 336.069 324.245C336.069 323.507 334.879 322.908 333.41 322.908C331.942 322.908 330.752 323.507 330.752 324.245C330.752 324.983 331.942 325.582 333.41 325.582Z" fill="white"/>
<path d="M358.177 307.881C359.646 307.881 360.836 307.283 360.836 306.544C360.836 305.806 359.646 305.207 358.177 305.207C356.709 305.207 355.519 305.806 355.519 306.544C355.519 307.283 356.709 307.881 358.177 307.881Z" fill="white"/>
<path d="M375.365 321.57C376.833 321.57 378.024 320.972 378.024 320.234C378.024 319.495 376.833 318.897 375.365 318.897C373.896 318.897 372.706 319.495 372.706 320.234C372.706 320.972 373.896 321.57 375.365 321.57Z" fill="white"/>
<path d="M401.85 316.195C403.319 316.195 404.509 315.596 404.509 314.858C404.509 314.12 403.319 313.521 401.85 313.521C400.382 313.521 399.191 314.12 399.191 314.858C399.191 315.596 400.382 316.195 401.85 316.195Z" fill="white"/>
<path d="M261.621 404.128L288.092 390.554L319.749 404.421C319.749 404.421 332.338 403.011 338.155 402.468C343.972 401.924 352.199 401.087 355.519 402.879C358.853 404.671 364.377 408.696 368.549 408.49C372.72 408.285 387.91 400.705 394.021 402.879C400.132 405.053 419.787 403.848 426.426 402.879L393.462 414.366H288.21L261.621 404.128Z" fill="#FDF0B9"/>
<path d="M517.401 407.83L477.136 423.563L439.927 422.785L439.677 422.77L426.735 422.285L440.955 412.267L474.007 405.333L517.401 407.83Z" fill="#E06738"/>
<path d="M427.514 396.387C427.205 396.387 426.911 396.196 426.809 395.873C426.691 395.491 426.897 395.08 427.279 394.948C427.455 394.889 444.657 389.366 458.01 389.88C458.421 389.894 458.73 390.232 458.715 390.644C458.7 391.055 458.333 391.334 457.951 391.349C444.848 390.835 427.896 396.284 427.719 396.343C427.661 396.387 427.587 396.387 427.514 396.387Z" fill="black"/>
<path d="M281.526 393.625C281.409 393.625 281.276 393.596 281.159 393.537C268.452 386.369 255.349 386.016 255.217 386.016C254.805 386.001 254.482 385.678 254.497 385.267C254.512 384.856 254.864 384.591 255.246 384.547C255.378 384.547 268.849 384.914 281.879 392.259C282.231 392.465 282.364 392.906 282.158 393.258C282.026 393.493 281.776 393.625 281.526 393.625Z" fill="black"/>
<path d="M248.327 406.773C248.269 406.773 248.224 406.773 248.166 406.759L230.45 402.719C230.053 402.631 229.803 402.234 229.892 401.838C229.98 401.441 230.376 401.191 230.773 401.279L248.489 405.319C248.885 405.407 249.135 405.804 249.047 406.201C248.959 406.538 248.65 406.773 248.327 406.773Z" fill="black"/>
<path d="M58.6076 80.5544C57.8437 77.543 52.0853 76.2356 44.3585 76.8673C42.8454 76.9848 41.4352 76.1475 40.8329 74.7666C37.748 67.6567 33.8552 63.2057 30.8438 63.9549C27.8324 64.7188 26.525 70.4772 27.1567 78.204C27.2742 79.7171 26.4369 81.1273 25.056 81.7296C17.9462 84.8145 13.4952 88.7073 14.2443 91.7187C15.0082 94.7301 20.7666 96.0375 28.4935 95.4058C30.0065 95.2883 31.4167 96.1256 32.019 97.5065C35.1039 104.616 38.9967 109.067 42.0081 108.318C45.0195 107.554 46.3269 101.796 45.6952 94.0691C45.5777 92.556 46.415 91.1458 47.7959 90.5435C54.9058 87.4439 59.3715 83.5658 58.6076 80.5544Z" fill="#32B768"/>
<path d="M539.964 271.611C540.464 268.556 535.689 265.045 528.359 262.562C526.934 262.078 525.965 260.741 525.965 259.228C525.95 251.486 524.173 245.845 521.103 245.331C518.047 244.832 514.536 249.606 512.054 256.936C511.569 258.361 510.232 259.331 508.719 259.331C500.977 259.345 495.337 261.123 494.822 264.193C494.323 267.248 499.097 270.759 506.427 273.242C507.852 273.727 508.822 275.063 508.822 276.576C508.836 284.318 510.614 289.959 513.684 290.473C516.74 290.972 520.25 286.198 522.733 278.868C523.218 277.443 524.555 276.474 526.068 276.474C533.824 276.459 539.465 274.681 539.964 271.611Z" fill="#EDB82C"/>
<path d="M25.629 369.651C35.6951 369.651 43.8553 361.491 43.8553 351.425C43.8553 341.359 35.6951 333.199 25.629 333.199C15.5629 333.199 7.40271 341.359 7.40271 351.425C7.40271 361.491 15.5629 369.651 25.629 369.651Z" fill="#32B768"/>
</svg>
