<svg width="524" height="408" viewBox="0 0 524 408" fill="none" xmlns="http://www.w3.org/2000/svg">
<path d="M43.6387 370.944C43.6387 370.944 -6.32133 338.156 0.671022 265.324C8.41256 184.677 40.1866 175.863 64.2339 164.023C91.5276 150.582 114.884 148.261 146.188 81.8338C187.511 -5.86446 261.871 0.0849145 290.016 0.0849145C385.588 0.0849145 384.443 94.849 430.583 142.018C474.021 186.411 568.947 282.644 461.432 367.889C405.449 412.267 133.159 426.383 43.6387 370.944Z" fill="#B3FFD1"/>
<path d="M443.29 195.166C487.465 195.166 523.276 159.355 523.276 115.18C523.276 71.0052 487.465 35.1942 443.29 35.1942C399.115 35.1942 363.304 71.0052 363.304 115.18C363.304 159.355 399.115 195.166 443.29 195.166Z" fill="#32B768"/>
<path d="M431.729 147.672L401.512 123.478C398.354 120.937 397.355 116.412 399.47 112.96C402.026 108.773 407.565 107.907 411.266 110.874L438.736 132.865L474.095 89.4564C476.871 86.0483 481.895 85.5342 485.303 88.3105C488.711 91.0869 489.225 96.1108 486.449 99.5189L448.681 145.865C444.48 151.021 436.915 151.829 431.729 147.672Z" fill="white"/>
<path d="M58.6076 80.5544C57.8437 77.543 52.0853 76.2356 44.3585 76.8673C42.8454 76.9848 41.4352 76.1475 40.8329 74.7666C37.748 67.6567 33.8552 63.2057 30.8438 63.9549C27.8324 64.7188 26.525 70.4772 27.1567 78.204C27.2742 79.7171 26.4369 81.1273 25.056 81.7296C17.9462 84.8145 13.4952 88.7073 14.2443 91.7187C15.0082 94.7301 20.7666 96.0375 28.4935 95.4058C30.0065 95.2883 31.4167 96.1256 32.019 97.5065C35.1039 104.616 38.9967 109.067 42.0081 108.318C45.0195 107.554 46.3269 101.796 45.6952 94.0691C45.5777 92.556 46.415 91.1458 47.7959 90.5435C54.9058 87.4439 59.3715 83.5658 58.6076 80.5544Z" fill="#32B768"/>
<path d="M25.629 369.651C35.6951 369.651 43.8553 361.491 43.8553 351.425C43.8553 341.359 35.6951 333.199 25.629 333.199C15.5629 333.199 7.40271 341.359 7.40271 351.425C7.40271 361.491 15.5629 369.651 25.629 369.651Z" fill="#32B768"/>
<path opacity="0.5" d="M276 92H263.5C228.138 92 210.475 92 199.487 102.987C188.5 113.975 188.5 131.65 188.5 167V267C188.5 302.363 188.5 320.037 199.487 331.025C210.462 342 228.138 342 263.475 342H276C311.35 342 329.025 342 340.012 331.012C351 320.038 351 302.35 351 267V167C351 131.65 351 113.962 340.012 102.987C329.025 92 311.35 92 276 92Z" fill="#32B768"/>
<path fill-rule="evenodd" clip-rule="evenodd" d="M91.6375 216.988C91.6375 214.501 92.6252 212.117 94.3834 210.358C96.1415 208.6 98.5261 207.613 101.013 207.613H250.675L226.163 186.613C225.227 185.811 224.458 184.834 223.9 183.736C223.342 182.638 223.006 181.44 222.911 180.212C222.719 177.732 223.52 175.277 225.137 173.388C226.755 171.498 229.058 170.328 231.538 170.136C234.018 169.944 236.473 170.745 238.363 172.363L282.113 209.863C283.142 210.743 283.968 211.835 284.535 213.065C285.101 214.295 285.394 215.633 285.394 216.988C285.394 218.342 285.101 219.68 284.535 220.91C283.968 222.14 283.142 223.232 282.113 224.113L238.363 261.613C236.473 263.23 234.018 264.031 231.538 263.839C229.058 263.647 226.755 262.477 225.137 260.588C223.52 258.698 222.719 256.243 222.911 253.763C223.103 251.283 224.273 248.98 226.163 247.363L250.663 226.363H101.025C98.5386 226.363 96.154 225.375 94.3959 223.617C92.6377 221.859 91.6375 219.474 91.6375 216.988Z" fill="#32B768"/>
<path opacity="0.5" fill-rule="evenodd" clip-rule="evenodd" d="M198.92 103.571C199.106 103.375 199.295 103.18 199.488 102.987C210.475 92 228.138 92 263.5 92C228.138 92 210.475 92 199.488 102.988C199.295 103.18 199.106 103.375 198.92 103.571ZM203.797 334.554C215.011 342 232.424 342 263.475 342H276C311.35 342 329.025 342 340.013 331.012C348.456 322.579 350.411 310.181 350.864 288.851L203.797 334.554Z" fill="#32B768"/>
<path fill-rule="evenodd" clip-rule="evenodd" d="M351 167C351 131.65 351 113.963 340.012 102.988C329.025 92.0001 311.35 92.0001 276 92.0001H263.5C228.138 92.0001 210.475 92.0001 199.487 102.988C188.5 113.975 188.5 131.65 188.5 167V267C188.5 274.409 188.5 281.042 188.601 287C188.982 309.476 190.802 322.34 199.487 331.025C200.819 332.356 202.249 333.526 203.797 334.554L350.864 288.851C351 282.423 351 275.185 351 267V167Z" fill="url(#paint0_linear_818_2629)" fill-opacity="0.3"/>
<path d="M373.178 256.316C373.677 253.26 368.903 249.75 361.573 247.267C360.148 246.782 359.178 245.445 359.178 243.932C359.164 236.191 357.386 230.55 354.316 230.036C351.26 229.536 347.75 234.311 345.267 241.641C344.782 243.066 343.445 244.035 341.932 244.035C334.191 244.05 328.55 245.827 328.036 248.897C327.536 251.953 332.311 255.464 339.641 257.946C341.066 258.431 342.035 259.768 342.035 261.281C342.05 269.023 343.827 274.663 346.897 275.178C349.953 275.677 353.464 270.903 355.946 263.573C356.431 262.148 357.768 261.178 359.281 261.178C367.037 261.163 372.678 259.386 373.178 256.316Z" fill="#EDB82C"/>
<defs>
<linearGradient id="paint0_linear_818_2629" x1="351.031" y1="213.725" x2="188.664" y2="213.725" gradientUnits="userSpaceOnUse">
<stop stop-color="#32B768"/>
<stop offset="0.56" stop-color="#32B768" stop-opacity="0"/>
</linearGradient>
</defs>
</svg>
